<?xml version="1.0" encoding="UTF-8"?>
<!DOCTYPE svg PUBLIC "-//W3C//DTD SVG 1.1//EN" "http://www.w3.org/Graphics/SVG/1.1/DTD/svg11.dtd">
<!-- Creator: CorelDRAW -->
<svg xmlns="http://www.w3.org/2000/svg" xml:space="preserve" width="12.1352in" height="2.1375in" version="1.1" style="shape-rendering:geometricPrecision; text-rendering:geometricPrecision; image-rendering:optimizeQuality; fill-rule:evenodd; clip-rule:evenodd"
viewBox="0 0 12135.19 2137.5"
 xmlns:xlink="http://www.w3.org/1999/xlink"
 xmlns:xodm="http://www.corel.com/coreldraw/odm/2003">
 <defs>
  <style type="text/css">
   <![CDATA[
    .fil0 {fill:black;fill-rule:nonzero}
   ]]>
  </style>
 </defs>
 <g id="Layer_x0020_1">
  <metadata id="CorelCorpID_0Corel-Layer"/>
  <path class="fil0" d="M874.15 2.31c130.21,0 245.83,14.58 346.35,42.71 100.52,29.17 181.25,59.37 242.71,90.63 61.46,32.29 98.96,53.12 112.5,63.54l-259.37 437.5c-16.67,-13.54 -45.31,-31.77 -85.94,-54.69 -40.63,-22.92 -86.98,-43.75 -139.58,-61.98 -52.61,-17.71 -105.21,-27.08 -157.29,-27.08 -66.67,0 -121.35,10.94 -163.02,31.77 -42.19,21.35 -63.54,54.69 -63.54,99.48 0,31.25 11.46,59.37 34.37,84.37 22.92,25 59.37,50 110.42,75 50,25 117.19,52.09 200.52,81.25 78.13,27.08 151.04,59.9 218.23,98.44 67.19,38.54 125.52,84.37 175.52,137.5 50,53.13 89.58,114.06 118.23,182.81 28.13,68.75 42.71,146.35 42.71,232.81 0,110.42 -22.92,205.21 -67.71,283.33 -45.31,78.65 -106.25,143.23 -182.81,193.23 -76.56,50 -163.02,86.98 -258.85,110.94 -95.83,23.96 -193.75,35.94 -293.75,35.94 -147.92,0 -279.69,-16.67 -395.83,-49.48 -116.15,-32.29 -210.41,-68.23 -281.25,-106.77 -71.35,-38.54 -114.58,-65.1 -129.17,-79.69l267.19 -454.69c11.46,9.37 35.94,24.48 73.44,45.31 37.5,20.83 82.29,42.71 135.42,65.62 52.61,22.92 107.81,42.19 166.15,57.81 58.33,15.62 113.54,23.44 165.63,23.44 79.17,0 138.02,-13.02 176.56,-40.11 38.54,-26.04 57.81,-63.02 57.81,-109.89 0,-34.37 -11.98,-65.63 -35.94,-93.23 -23.96,-27.61 -63.02,-55.21 -117.19,-82.81 -54.17,-27.08 -126.56,-58.33 -217.19,-92.71 -89.58,-34.37 -173.96,-77.08 -252.08,-129.17 -78.65,-51.04 -142.71,-117.71 -192.19,-198.96 -49.48,-81.25 -74.48,-182.29 -74.48,-303.13 0,-121.87 34.38,-226.56 102.61,-315.11 68.23,-87.5 157.29,-155.21 267.71,-203.12 110.41,-46.88 228.12,-70.83 353.12,-70.83z"/>
  <polygon id="_1" class="fil0" points="1984.09,513.25 1518.47,513.25 1518.47,39.81 2993.47,39.81 2991.91,513.25 2527.84,513.25 2526.28,2102.31 1984.09,2102.31 "/>
  <polygon id="_2" class="fil0" points="2978.41,39.81 4331.53,39.81 4331.53,513.25 3520.59,513.25 3519.03,839.81 4328.41,839.81 4328.41,1297.63 3520.59,1297.63 3519.03,1628.88 4331.53,1628.88 4331.53,2102.31 2976.84,2102.31 "/>
  <path id="_3" class="fil0" d="M4394.59 39.81l887.5 0c122.92,0 231.77,26.04 326.56,77.08 94.79,52.08 169.79,125.52 224.48,221.35 54.17,95.83 81.77,209.9 81.77,342.19 0,131.25 -22.39,238.02 -67.19,320.31 -44.79,82.29 -98.44,143.75 -160.94,184.37 -62.5,40.63 -119.79,66.15 -171.88,76.56l496.88 840.63 -610.94 0 -434.38 -798.44 -26.56 0 0 798.44 -545.31 0 0 -2062.5zm545.31 892.19l146.88 0c67.71,0 129.17,-16.15 185.41,-48.44 55.21,-32.29 83.33,-94.27 83.33,-185.94 0,-90.62 -27.6,-152.08 -81.77,-184.37 -55.21,-32.29 -115.62,-48.44 -182.29,-48.44l-151.56 0 0 467.19z"/>
  <polygon id="_4" class="fil0" points="6067.04,39.81 6610.78,39.81 6610.78,1628.88 7335.78,1628.88 7334.22,2102.31 6067.04,2102.31 "/>
  <polygon id="_5" class="fil0" points="7383.22,39.81 7925.41,39.81 7926.97,2102.31 7383.22,2102.31 "/>
  <polygon id="_6" class="fil0" points="8508.78,535.13 8549.41,542.94 8549.41,2102.31 8005.66,2102.31 8005.66,39.81 8743.16,39.81 9488.47,1596.06 9449.41,1603.88 9449.41,39.81 9991.59,39.81 9991.59,2102.31 9250.97,2102.31 "/>
  <path id="_7" class="fil0" d="M11078.09 936.69l1054.69 0 0 137.5c0,150 -24.48,289.58 -73.44,417.71 -48.96,129.17 -119.79,242.19 -211.46,339.06 -92.71,97.4 -202.6,173.44 -330.73,227.6 -128.13,54.17 -270.83,81.25 -428.13,81.25 -163.54,0 -310.94,-27.6 -442.19,-82.29 -131.25,-54.17 -244.27,-130.73 -338.02,-228.13 -94.79,-96.87 -167.19,-210.42 -217.19,-340.63 -50.52,-129.17 -76.04,-269.27 -76.04,-419.27 0,-148.96 25.52,-288.54 76.04,-418.23 50,-129.17 122.39,-242.71 217.19,-340.62 93.75,-96.88 206.77,-172.92 338.02,-227.09 131.25,-54.17 278.65,-81.25 442.19,-81.25 140.63,0 263.54,15.63 368.75,45.83 105.21,31.25 194.27,70.83 268.23,119.79 72.92,48.96 134.37,102.6 183.33,159.89 48.96,58.33 88.54,113.02 118.75,165.11l-520.31 239.06c-34.37,-57.29 -83.85,-108.85 -148.44,-154.69 -64.59,-45.83 -154.69,-68.75 -270.31,-68.75 -76.04,0 -145.31,14.59 -206.77,44.27 -62.5,29.69 -115.62,70.31 -160.41,121.88 -44.79,51.56 -79.17,111.46 -103.13,179.17 -23.96,67.71 -35.94,139.58 -35.94,215.63 0,77.08 11.98,149.48 35.94,217.19 23.96,67.71 58.33,127.08 103.13,178.65 44.79,51.56 97.91,92.19 160.41,121.35 61.46,29.17 130.73,43.75 206.77,43.75 62.5,0 119.27,-6.25 170.31,-18.75 51.04,-12.5 94.79,-31.25 131.25,-56.25 36.46,-25 65.63,-55.21 87.5,-90.11 21.87,-34.89 35.42,-73.96 40.63,-117.71l-440.63 0 0 -410.94z"/>
 </g>
</svg>
