<?xml version="1.0" encoding="UTF-8"?>
<!DOCTYPE svg PUBLIC "-//W3C//DTD SVG 1.1//EN" "http://www.w3.org/Graphics/SVG/1.1/DTD/svg11.dtd">
<!-- Creator: CorelDRAW -->
<svg xmlns="http://www.w3.org/2000/svg" xml:space="preserve" width="12.1352in" height="2.81202in" version="1.1" style="shape-rendering:geometricPrecision; text-rendering:geometricPrecision; image-rendering:optimizeQuality; fill-rule:evenodd; clip-rule:evenodd"
viewBox="0 0 12135.19 2812.02"
 xmlns:xlink="http://www.w3.org/1999/xlink"
 xmlns:xodm="http://www.corel.com/coreldraw/odm/2003">
 <defs>
  <style type="text/css">
   <![CDATA[
    .fil0 {fill:black;fill-rule:nonzero}
   ]]>
  </style>
 </defs>
 <g id="Layer_x0020_1">
  <metadata id="CorelCorpID_0Corel-Layer"/>
  <path class="fil0" d="M874.89 -0c130.21,0 245.83,14.58 346.35,42.71 100.52,29.17 181.25,59.37 242.71,90.63 61.46,32.29 98.96,53.12 112.5,63.54l-259.37 437.5c-16.67,-13.54 -45.31,-31.77 -85.94,-54.69 -40.63,-22.92 -86.98,-43.75 -139.58,-61.98 -52.61,-17.71 -105.21,-27.08 -157.29,-27.08 -66.67,0 -121.35,10.94 -163.02,31.77 -42.19,21.35 -63.54,54.69 -63.54,99.48 0,31.25 11.46,59.37 34.37,84.37 22.92,25 59.37,50 110.42,75 50,25 117.19,52.09 200.52,81.25 78.13,27.08 151.04,59.9 218.23,98.44 67.19,38.54 125.52,84.37 175.52,137.5 50,53.13 89.58,114.06 118.23,182.81 28.13,68.75 42.71,146.35 42.71,232.81 0,110.42 -22.92,205.21 -67.71,283.33 -45.31,78.65 -106.25,143.23 -182.81,193.23 -76.56,50 -163.02,86.98 -258.85,110.94 -95.83,23.96 -193.75,35.94 -293.75,35.94 -147.92,0 -279.69,-16.67 -395.83,-49.48 -116.15,-32.29 -210.41,-68.23 -281.25,-106.77 -71.35,-38.54 -114.58,-65.1 -129.17,-79.69l267.19 -454.69c11.46,9.37 35.94,24.48 73.44,45.31 37.5,20.83 82.29,42.71 135.42,65.62 52.61,22.92 107.81,42.19 166.15,57.81 58.33,15.62 113.54,23.44 165.63,23.44 79.17,0 138.02,-13.02 176.56,-40.11 38.54,-26.04 57.81,-63.02 57.81,-109.89 0,-34.37 -11.98,-65.63 -35.94,-93.23 -23.96,-27.61 -63.02,-55.21 -117.19,-82.81 -54.17,-27.08 -126.56,-58.33 -217.19,-92.71 -89.58,-34.37 -173.96,-77.08 -252.08,-129.17 -78.65,-51.04 -142.71,-117.71 -192.19,-198.96 -49.48,-81.25 -74.48,-182.29 -74.48,-303.13 0,-121.87 34.38,-226.56 102.61,-315.11 68.23,-87.5 157.29,-155.21 267.71,-203.12 110.41,-46.88 228.12,-70.83 353.12,-70.83z"/>
  <polygon id="_1" class="fil0" points="1984.83,510.93 1519.21,510.93 1519.21,37.5 2994.21,37.5 2992.65,510.93 2528.58,510.93 2527.02,2100 1984.83,2100 "/>
  <polygon id="_2" class="fil0" points="2979.15,37.5 4332.27,37.5 4332.27,510.93 3521.33,510.93 3519.77,837.5 4329.15,837.5 4329.15,1295.31 3521.33,1295.31 3519.77,1626.56 4332.27,1626.56 4332.27,2100 2977.58,2100 "/>
  <path id="_3" class="fil0" d="M4395.33 37.5l887.5 0c122.92,0 231.77,26.04 326.56,77.08 94.79,52.08 169.79,125.52 224.48,221.35 54.17,95.83 81.77,209.9 81.77,342.19 0,131.25 -22.39,238.02 -67.19,320.31 -44.79,82.29 -98.44,143.75 -160.94,184.37 -62.5,40.63 -119.79,66.15 -171.88,76.56l496.88 840.63 -610.94 0 -434.38 -798.44 -26.56 0 0 798.44 -545.31 0 0 -2062.5zm545.31 892.19l146.88 0c67.71,0 129.17,-16.15 185.41,-48.44 55.21,-32.29 83.33,-94.27 83.33,-185.94 0,-90.62 -27.6,-152.08 -81.77,-184.37 -55.21,-32.29 -115.62,-48.44 -182.29,-48.44l-151.56 0 0 467.19z"/>
  <polygon id="_4" class="fil0" points="6067.78,37.5 6611.52,37.5 6611.52,1626.56 7336.52,1626.56 7334.96,2100 6067.78,2100 "/>
  <polygon id="_5" class="fil0" points="7383.96,37.5 7926.15,37.5 7927.71,2100 7383.96,2100 "/>
  <polygon id="_6" class="fil0" points="8509.52,532.81 8550.15,540.62 8550.15,2100 8006.4,2100 8006.4,37.5 8743.9,37.5 9489.21,1593.74 9450.15,1601.56 9450.15,37.5 9992.33,37.5 9992.33,2100 9251.71,2100 "/>
  <path id="_7" class="fil0" d="M11078.83 934.37l1054.69 0 0 137.5c0,150 -24.48,289.58 -73.44,417.71 -48.96,129.17 -119.79,242.19 -211.46,339.06 -92.71,97.4 -202.6,173.44 -330.73,227.6 -128.13,54.17 -270.83,81.25 -428.13,81.25 -163.54,0 -310.94,-27.6 -442.19,-82.29 -131.25,-54.17 -244.27,-130.73 -338.02,-228.13 -94.79,-96.87 -167.19,-210.42 -217.19,-340.63 -50.52,-129.17 -76.04,-269.27 -76.04,-419.27 0,-148.96 25.52,-288.54 76.04,-418.23 50,-129.17 122.39,-242.71 217.19,-340.62 93.75,-96.88 206.77,-172.92 338.02,-227.09 131.25,-54.17 278.65,-81.25 442.19,-81.25 140.63,0 263.54,15.63 368.75,45.83 105.21,31.25 194.27,70.83 268.23,119.79 72.92,48.96 134.37,102.6 183.33,159.89 48.96,58.33 88.54,113.02 118.75,165.11l-520.31 239.06c-34.37,-57.29 -83.85,-108.85 -148.44,-154.69 -64.59,-45.83 -154.69,-68.75 -270.31,-68.75 -76.04,0 -145.31,14.59 -206.77,44.27 -62.5,29.69 -115.62,70.31 -160.41,121.88 -44.79,51.56 -79.17,111.46 -103.13,179.17 -23.96,67.71 -35.94,139.58 -35.94,215.63 0,77.08 11.98,149.48 35.94,217.19 23.96,67.71 58.33,127.08 103.13,178.65 44.79,51.56 97.91,92.19 160.41,121.35 61.46,29.17 130.73,43.75 206.77,43.75 62.5,0 119.27,-6.25 170.31,-18.75 51.04,-12.5 94.79,-31.25 131.25,-56.25 36.46,-25 65.63,-55.21 87.5,-90.11 21.87,-34.89 35.42,-73.96 40.63,-117.71l-440.63 0 0 -410.94z"/>
  <polygon class="fil0" points="3675.85,2787.23 3675.85,2309.9 3997.85,2309.9 3997.85,2365.9 3739.19,2365.9 3739.19,2514.57 3963.19,2514.57 3963.19,2570.57 3739.19,2570.57 3739.19,2787.23 "/>
  <path id="_1_0" class="fil0" d="M4502.63 2787.23l0 -477.33 211.56 0c42.56,0 74.89,4.33 97,12.89 22.11,8.56 39.78,23.67 53,45.33 13.22,21.67 19.78,45.67 19.78,71.89 0,33.89 -11,62.44 -32.89,85.67 -21.89,23.22 -55.67,37.89 -101.44,44.22 16.78,8 29.44,16 38.11,23.78 18.44,16.89 35.89,38.11 52.22,63.56l82.56 130 -78.89 0 -63.11 -99.33c-18.33,-28.78 -33.56,-50.67 -45.44,-65.89 -12,-15.22 -22.67,-25.78 -32.11,-31.89 -9.33,-6 -19,-10.22 -28.78,-12.67 -7.11,-1.44 -18.78,-2.22 -35.11,-2.22l-73.11 0 0 212 -63.33 0zm63.33 -266.67l135.56 0c28.89,0 51.33,-3 67.56,-9 16.22,-5.89 28.56,-15.44 36.89,-28.67 8.44,-13.11 12.67,-27.33 12.67,-42.78 0,-22.56 -8.11,-41.22 -24.44,-55.78 -16.33,-14.56 -42.11,-21.78 -77.33,-21.78l-150.89 0 0 158z"/>
  <path id="_2_1" class="fil0" d="M5351.97 2787.23l183.11 -477.33 69.44 0 194.33 477.33 -71.89 0 -55.22 -144.67 -201 0 -51.78 144.67 -67 0zm137.33 -196l162.67 0 -49.78 -132.33c-15,-40.22 -26.33,-73.44 -34.22,-99.67 -6.56,31.11 -15.33,61.67 -26.33,91.89l-52.33 140.11z"/>
  <path id="_3_2" class="fil0" d="M6269.2 2787.23l0 -477.33 94.67 0 112.89 337.89c10.44,31.44 18,55 22.78,70.67 5.44,-17.33 14,-42.89 25.56,-76.56l114.89 -332 84.56 0 0 477.33 -60.67 0 0 -399.33 -139.33 399.33 -56.89 0 -137.78 -406.67 0 406.67 -60.67 0z"/>
  <polygon id="_4_3" class="fil0" points="7248.75,2787.23 7248.75,2309.9 7593.42,2309.9 7593.42,2365.9 7312.09,2365.9 7312.09,2512.57 7575.42,2512.57 7575.42,2568.57 7312.09,2568.57 7312.09,2731.23 7604.75,2731.23 7604.75,2787.23 "/>
  <path id="_5_4" class="fil0" d="M8092.98 2633.9l59.33 -5.33c2.78,24 9.33,43.67 19.67,59.11 10.33,15.33 26.33,27.78 48,37.33 21.67,9.44 46.11,14.22 73.22,14.22 24.11,0 45.33,-3.56 63.78,-10.78 18.44,-7.22 32.11,-17.11 41.11,-29.67 9,-12.56 13.56,-26.22 13.56,-40.89 0,-14.89 -4.33,-27.89 -13,-39.11 -8.67,-11.11 -23,-20.44 -43,-28.11 -12.78,-4.89 -41.11,-12.67 -85,-23.22 -43.89,-10.56 -74.56,-20.44 -92.11,-29.78 -22.78,-12 -39.67,-26.89 -50.78,-44.56 -11.22,-17.67 -16.78,-37.56 -16.78,-59.44 0,-24.22 6.89,-46.78 20.56,-67.67 13.67,-21 33.56,-36.89 59.89,-47.78 26.22,-10.89 55.44,-16.33 87.56,-16.33 35.33,0 66.56,5.67 93.56,17.11 27,11.33 47.78,28.11 62.33,50.33 14.56,22.11 22.33,47.22 23.44,75.22l-60.67 4.67c-3.22,-30.11 -14.22,-52.89 -33,-68.22 -18.78,-15.44 -46.56,-23.11 -83.22,-23.11 -38.22,0 -66.11,7 -83.56,21 -17.44,14 -26.22,30.89 -26.22,50.67 0,17.11 6.22,31.22 18.56,42.33 12.22,11 43.89,22.44 95.22,34 51.33,11.67 86.56,21.78 105.67,30.44 27.67,12.78 48.22,28.89 61.44,48.56 13.22,19.56 19.78,42.11 19.78,67.67 0,25.44 -7.22,49.22 -21.78,71.67 -14.56,22.44 -35.33,39.89 -62.56,52.33 -27.22,12.44 -57.78,18.67 -91.89,18.67 -43.11,0 -79.22,-6.33 -108.33,-18.89 -29.22,-12.56 -52,-31.44 -68.56,-56.78 -16.67,-25.22 -25.33,-53.78 -26.22,-85.67z"/>
 </g>
</svg>
